<svg width="36" height="36" viewBox="0 0 36 36" fill="none" xmlns="http://www.w3.org/2000/svg">
<path d="M17.695 13.27C15.2512 13.27 13.2716 15.2503 13.2716 17.6933C13.2716 20.137 15.252 22.1167 17.695 22.1167C20.1386 22.1167 22.1184 20.1364 22.1184 17.6933C22.1184 15.2497 20.138 13.27 17.695 13.27ZM17.695 10.321C21.7651 10.321 25.0673 13.6196 25.0673 17.6933C25.0673 21.7636 21.7688 25.0656 17.695 25.0656C13.6248 25.0656 10.3227 21.7671 10.3227 17.6933C10.3227 13.6231 13.6212 10.321 17.695 10.321ZM27.279 9.95117C27.279 10.9687 26.4521 11.7943 25.4359 11.7943C24.4184 11.7943 23.5928 10.9674 23.5928 9.95117C23.5928 8.93489 24.4196 8.10934 25.4359 8.10934C26.4508 8.10806 27.279 8.93489 27.279 9.95117ZM17.695 5.89765C14.0464 5.89765 13.4518 5.90731 11.7548 5.98288C10.5986 6.03715 9.82362 6.19265 9.10354 6.47221C8.46362 6.72039 8.00201 7.01674 7.51018 7.50857C7.01645 8.0023 6.72063 8.46267 6.47345 9.10288C6.19325 9.82461 6.0378 10.5984 5.98449 11.753C5.90819 13.3808 5.89927 13.9498 5.89927 17.6933C5.89927 21.3419 5.90893 21.9365 5.98448 23.6334C6.03878 24.789 6.19449 25.5652 6.47337 26.2835C6.7222 26.9243 7.01915 27.387 7.50861 27.8766C8.00428 28.3715 8.46603 28.6683 9.10016 28.9131C9.82902 29.1949 10.6035 29.3506 11.7546 29.4038C13.3825 29.48 13.9514 29.489 17.695 29.489C21.3435 29.489 21.9382 29.4793 23.635 29.4038C24.7882 29.3497 25.5649 29.1935 26.2852 28.9149C26.9242 28.6667 27.3884 28.3687 27.8782 27.8797C28.3739 27.3832 28.6701 26.9226 28.9152 26.2869C29.1962 25.5608 29.3522 24.7852 29.4054 23.6338C29.4817 22.0058 29.4907 21.4368 29.4907 17.6933C29.4907 14.0448 29.4809 13.4502 29.4054 11.7533C29.3512 10.5998 29.195 9.82192 28.9161 9.10192C28.6685 8.46377 28.3711 8.00075 27.8797 7.50857C27.3851 7.01404 26.926 6.71882 26.2853 6.47184C25.5642 6.19187 24.7892 6.03619 23.6353 5.98289C22.0075 5.90657 21.4385 5.89765 17.695 5.89765ZM17.695 2.94873C21.7005 2.94873 22.2006 2.96347 23.7734 3.0372C25.3424 3.1097 26.4127 3.35789 27.3527 3.72282C28.3245 4.09759 29.1453 4.60381 29.9649 5.42336C30.7832 6.24293 31.2895 7.06616 31.6655 8.03562C32.0291 8.97437 32.2774 10.0458 32.3511 11.6149C32.4212 13.1876 32.4396 13.6877 32.4396 17.6933C32.4396 21.699 32.4248 22.199 32.3511 23.7718C32.2786 25.3409 32.0291 26.4111 31.6655 27.3511C31.2907 28.323 30.7832 29.1437 29.9649 29.9634C29.1453 30.7817 28.3208 31.2879 27.3527 31.6639C26.4127 32.0276 25.3424 32.2758 23.7734 32.3495C22.2006 32.4195 21.7005 32.4379 17.695 32.4379C13.6893 32.4379 13.1892 32.4232 11.6165 32.3495C10.0474 32.2769 8.97843 32.0276 8.03724 31.6639C7.06654 31.289 6.24453 30.7817 5.42498 29.9634C4.60543 29.1437 4.10043 28.3193 3.72444 27.3511C3.35951 26.4111 3.11254 25.3409 3.03882 23.7718C2.96878 22.199 2.95035 21.699 2.95035 17.6933C2.95035 13.6877 2.96509 13.1876 3.03882 11.6149C3.1113 10.0446 3.35951 8.97559 3.72444 8.03562C4.09919 7.06494 4.60543 6.24293 5.42498 5.42336C6.24453 4.60381 7.06778 4.09881 8.03724 3.72282C8.97721 3.35789 10.0462 3.11092 11.6165 3.0372C13.1892 2.96716 13.6893 2.94873 17.695 2.94873Z" fill="white"/>
</svg>
