<svg width="36" height="36" viewBox="0 0 36 36" fill="none" xmlns="http://www.w3.org/2000/svg">
<path d="M10.2335 7.37213C10.2329 8.5728 9.50448 9.65326 8.39165 10.104C7.27882 10.5548 6.0038 10.2858 5.16783 9.42402C4.33185 8.56218 4.10187 7.27957 4.5863 6.18097C5.07075 5.08238 6.17288 4.38719 7.373 4.42321C8.967 4.47106 10.2342 5.77741 10.2335 7.37213ZM10.3219 12.5033H4.42408V30.9635H10.3219V12.5033ZM19.6405 12.5033H13.7722V30.9635H19.5816V21.2763C19.5816 15.8797 26.6147 15.3784 26.6147 21.2763V30.9635H32.4389V19.271C32.4389 10.1736 22.0292 10.5127 19.5816 14.9803L19.6405 12.5033Z" fill="white"/>
</svg>
