<svg width="36" height="36" viewBox="0 0 36 36" fill="none" xmlns="http://www.w3.org/2000/svg">
<path d="M5.89978 4.42383H29.4931C30.3076 4.42383 30.9677 5.08403 30.9677 5.89841V29.4917C30.9677 30.3062 30.3076 30.9663 29.4931 30.9663H5.89978C5.08539 30.9663 4.4252 30.3062 4.4252 29.4917V5.89841C4.4252 5.08403 5.08539 4.42383 5.89978 4.42383ZM25.5131 23.5054C25.3649 23.4314 25.2909 23.2091 25.2909 23.0611V11.8062C25.2909 11.6581 25.3649 11.436 25.5131 11.2879L26.92 9.65891V9.58487H21.8847L18.1082 19.1366L13.8134 9.58487H8.62999V9.65891L9.96287 11.51C10.2591 11.8062 10.3331 12.2505 10.3331 12.6207V20.7658C10.4072 21.2099 10.3331 21.7282 10.111 22.1725L8.11166 24.9123V24.9863H13.4431V24.9123L11.4438 22.2465C11.2217 21.8024 11.1476 21.3581 11.2217 20.8398V13.4352C11.2957 13.5833 11.3698 13.5833 11.4438 13.8795L16.4791 25.1343H16.5532L21.4404 12.9169C21.3663 13.3612 21.3663 13.8795 21.3663 14.2497V22.9871C21.3663 23.2091 21.2923 23.3573 21.1442 23.5054L19.6633 24.9123V24.9863H26.92V24.9123L25.5131 23.5054Z" fill="white"/>
</svg>
