<svg width="92" height="92" viewBox="0 0 92 92" fill="none" xmlns="http://www.w3.org/2000/svg">
<path d="M40.1172 3.94273C43.1465 1.35242 48.1076 1.35242 51.1808 3.94273L58.1176 9.91359C59.4347 11.0551 61.8933 11.977 63.6494 11.977H71.113C75.7667 11.977 79.5863 15.7966 79.5863 20.4504V27.914C79.5863 29.6262 80.5083 32.1287 81.6498 33.4458L87.6207 40.3826C90.211 43.4119 90.211 48.373 87.6207 51.4462L81.6498 58.383C80.5083 59.7001 79.5863 62.1586 79.5863 63.9148V71.3784C79.5863 76.0321 75.7667 79.8517 71.113 79.8517H63.6494C61.9372 79.8517 59.4347 80.7737 58.1176 81.9152L51.1808 87.886C48.1515 90.4763 43.1904 90.4763 40.1172 87.886L33.1804 81.9152C31.8633 80.7737 29.4047 79.8517 27.6486 79.8517H20.0533C15.3995 79.8517 11.5799 76.0321 11.5799 71.3784V63.8709C11.5799 62.1586 10.658 59.7001 9.56039 58.383L3.63343 51.4023C1.08703 48.373 1.08703 43.4558 3.63343 40.4265L9.56039 33.4458C10.658 32.1287 11.5799 29.6701 11.5799 27.9579V20.4065C11.5799 15.7527 15.3995 11.9331 20.0533 11.9331H27.6486C29.3608 11.9331 31.8633 11.0112 33.1804 9.86969L40.1172 3.94273Z" stroke="url(#paint0_linear_31_85)" stroke-width="3.29276" stroke-linecap="round" stroke-linejoin="round"/>
<defs>
<linearGradient id="paint0_linear_31_85" x1="68.2349" y1="2.00001" x2="100.889" y2="4.88305" gradientUnits="userSpaceOnUse">
<stop stop-color="#CBB876"/>
<stop offset="0.453125" stop-color="#FDED7D"/>
<stop offset="1" stop-color="#F2DE97"/>
</linearGradient>
</defs>
</svg>
